<?xml version="1.0" encoding="utf-8"?>
<!-- Generator: Adobe Illustrator 27.9.0, SVG Export Plug-In . SVG Version: 6.00 Build 0)  -->
<svg version="1.1" id="Layer_1" xmlns="http://www.w3.org/2000/svg" xmlns:xlink="http://www.w3.org/1999/xlink" x="0px" y="0px"
	 viewBox="0 0 116 81" style="enable-background:new 0 0 116 81;" xml:space="preserve">
<style type="text/css">
	.st0{fill:#F4F4F4;}
</style>
<g>
	<path class="st0" d="M105.6,79.9c4,0,7.2,0,10.4,0c0,0.4,0,0.8,0,1.1c-38.6,0-77.2,0-115.8,0c0-0.3-0.1-0.7-0.1-1
		c3.1-0.1,6.2-0.3,10.1-0.4c0-7.7,0-15.2,0-22.8c0-3.1-0.1-6.2,0-9.2c0.1-3.4,0.1-6.2-4.3-8.3C1.4,37.1,0.4,28.4,3.2,23
		c3.5-6.8,7.1-13.6,11-20.2c0.8-1.3,3.2-2.7,4.9-2.7C45.1,0,71.2,0,97.3,0.1c1.7,0,4.1,1.5,4.9,2.8c3.8,6.5,7.3,13.1,10.7,19.7
		c2.7,5.4-0.1,14.1-5.2,17.9c-1,0.7-1.9,2-1.9,3.1C105.5,55.4,105.6,67.2,105.6,79.9z M111.2,24c-3.9-7.2-7.2-13.7-10.9-20
		c-0.6-1.1-2.9-2-4.3-2C70.7,1.9,45.4,1.9,20.1,2c-1.3,0-3.3,0.5-3.7,1.3C12.4,10,8.9,16.8,5,24C40.7,24,75.5,24,111.2,24z
		 M21.6,37.7c-2.5,1.2-5,2.3-7.2,3.6c-0.8,0.4-1.8,1.4-1.8,2.1c-0.1,8.8-0.1,17.7-0.1,26.6c11,0,21.4,0,32.3,0c0-8.1,0-16,0-23.9
		c10.7,0,20.7,0,31.4,0c0,8.3,0,16.1,0,23.9c9.3,0,18,0,27.3,0c0-7.2-0.1-14.1,0-21c0.1-4.1,0.8-8.2-5.8-9.1
		c-1.4-0.2-2.5-1.7-3.7-2.5c-7.1,5.4-10.1,5.4-18.6,0.1c-6.4,5.3-10.8,5.3-17.8-0.1c-7.2,5.4-11.2,5.4-18.2-0.1
		C32.4,42.7,28.6,42.8,21.6,37.7z M73.3,79.6c0-10.9,0-21.3,0-31.7c-4.1,0-7.9,0-11.5,0c0,10.8,0,21.2,0,31.7
		C65.8,79.6,69.3,79.6,73.3,79.6z M47.3,47.6c0,10.6,0,21.2,0,31.7c4.1,0,7.8,0,11.4,0c0-10.8,0-21.2,0-31.7
		C54.7,47.6,51.2,47.6,47.3,47.6z M44.5,72.4c-10.9,0-21.2,0-31.6,0c0,2.6,0,4.8,0,7c10.8,0,21.1,0,31.6,0
		C44.5,77,44.5,74.9,44.5,72.4z M76.1,79.4c9.3,0,18.1,0,27,0c0-2.5,0-4.7,0-7c-9.2,0-18,0-27,0C76.1,74.8,76.1,76.9,76.1,79.4z
		 M40.8,26.4c-0.3,4.6-1.6,9.4,3.9,11.9c2.3,1,6.5,0.8,8.6-0.5c4.7-2.7,3.6-7.2,3-11.4C50.9,26.4,46,26.4,40.8,26.4z M77.1,26.3
		c-0.1,4.8-1.7,9.7,3.9,12.1c2.3,1,6.5,0.7,8.6-0.6c4.8-2.7,3.2-7.3,2.7-11.5C87.3,26.3,82.5,26.3,77.1,26.3z M59,26.3
		c-0.1,4.8-1.7,9.7,4,12.1c2.3,0.9,6.5,0.6,8.6-0.6c4.7-2.8,3.1-7.3,2.9-11.4C69.1,26.3,64.3,26.3,59,26.3z M110.9,26.4
		c-5.5,0-10.4,0-15.6,0c-0.2,4.4-1.5,9,3.4,11.6c2.1,1.1,6,1.3,8.2,0.4C112.5,36.1,110.9,31.1,110.9,26.4z M38.1,26.5
		c-5.3,0-10.4,0-15.5,0c-0.2,4.7-1.5,9.6,4.1,11.9c2.2,0.9,6.1,0.7,8.2-0.4C39.8,35.4,38.3,30.8,38.1,26.5z M4.5,26.3
		c0,4.7-1.8,9.6,3.9,12c2.3,1,6.5,0.7,8.6-0.5c4.8-2.7,3.2-7.3,2.9-11.5C14.7,26.3,9.9,26.3,4.5,26.3z"/>
	<path class="st0" d="M20.6,45.8c5.6,0,10.8,0,16.5,0c0,7,0,13.8,0,21.1c-5.4,0-10.8,0-16.5,0C20.6,59.8,20.6,52.9,20.6,45.8z
		 M22.6,65.1c4.5,0,8.4,0,12.5,0c0-5.9,0-11.5,0-17.3c-4.3,0-8.2,0-12.5,0C22.6,53.6,22.6,59.2,22.6,65.1z"/>
	<path class="st0" d="M81.4,45.8c5.6,0,10.7,0,16.4,0c0,7,0,14,0,21.2c-5.4,0-10.7,0-16.4,0C81.4,60,81.4,53.2,81.4,45.8z
		 M95.9,47.9c-4.4,0-8.3,0-12.4,0c0,5.9,0,11.5,0,17.2c4.3,0,8.3,0,12.4,0C95.9,59.3,95.9,53.8,95.9,47.9z"/>
</g>
</svg>
